<?xml version="1.0" encoding="UTF-8" standalone="no"?>
<svg
   xmlns:dc="http://purl.org/dc/elements/1.1/"
   xmlns:cc="http://creativecommons.org/ns#"
   xmlns:rdf="http://www.w3.org/1999/02/22-rdf-syntax-ns#"
   xmlns:svg="http://www.w3.org/2000/svg"
   xmlns="http://www.w3.org/2000/svg"
   xmlns:sodipodi="http://sodipodi.sourceforge.net/DTD/sodipodi-0.dtd"
   xmlns:inkscape="http://www.inkscape.org/namespaces/inkscape"
   inkscape:version="1.0 (4035a4fb49, 2020-05-01)"
   height="38"
   width="38"
   sodipodi:docname="ikona-paketek.svg"
   xml:space="preserve"
   viewBox="0 0 38 38"
   y="0px"
   x="0px"
   id="Layer_1"
   version="1.1"><metadata
   id="metadata13"><rdf:RDF><cc:Work
       rdf:about=""><dc:format>image/svg+xml</dc:format><dc:type
         rdf:resource="http://purl.org/dc/dcmitype/StillImage" /><dc:title></dc:title></cc:Work></rdf:RDF></metadata><defs
   id="defs11" /><sodipodi:namedview
   inkscape:current-layer="Layer_1"
   inkscape:window-maximized="1"
   inkscape:window-y="-8"
   inkscape:window-x="-8"
   inkscape:cy="25.142857"
   inkscape:cx="29.666588"
   inkscape:zoom="21"
   showgrid="false"
   id="namedview9"
   inkscape:window-height="1377"
   inkscape:window-width="2560"
   inkscape:pageshadow="2"
   inkscape:pageopacity="0"
   guidetolerance="10"
   gridtolerance="10"
   objecttolerance="10"
   borderopacity="1"
   bordercolor="#666666"
   pagecolor="#ffffff" />
<style
   id="style2"
   type="text/css">
	.st0{fill:#333333;}
</style>
<g
   style="fill:#ffffff;fill-opacity:1"
   transform="matrix(0.67375887,0,0,0.63439067,-13.407802,-11.482471)"
   id="XMLID_1_">
	<rect
   style="fill:#ffffff;fill-opacity:1"
   height="22.5"
   width="22.5"
   class="st0"
   y="55.5"
   x="23.6"
   id="XMLID_10_" />
	<rect
   style="fill:#ffffff;fill-opacity:1"
   height="22.5"
   width="22.5"
   class="st0"
   y="55.5"
   x="49.900002"
   id="XMLID_11_" />
	<path
   style="fill:#ffffff;fill-opacity:1"
   d="m 53.6,36.8 v -0.2 c 5.5,-0.5 15,-2.5 15,-9.1 0,-4.7 -4.7,-9.4 -9.4,-9.4 -4.2,0 -8.5,3.9 -9.2,15 H 49.9 46.1 46 c -0.8,-11.1 -5,-15 -9.2,-15 -4.7,0 -9.4,4.7 -9.4,9.4 0,6.7 9.5,8.6 15,9.1 v 0.2 H 19.9 v 15 h 26.3 v -15 H 50 v 15 h 26.3 v -15 z M 31.1,27.4 c 0,-2.6 3,-5.6 5.6,-5.6 2.9,0 4.9,4.2 5.5,11 -5.1,-0.6 -11.1,-2.3 -11.1,-5.4 z m 28.2,-5.6 c 2.6,0 5.6,3 5.6,5.6 0,3.1 -6,4.8 -11.1,5.4 0.5,-6.8 2.6,-11 5.5,-11 z"
   class="st0"
   id="XMLID_15_" />
</g>
</svg>

