<svg xmlns="http://www.w3.org/2000/svg" width="14.82mm" height="14.82mm" viewBox="0 0 42 42"><defs><style>.cls-1{isolation:isolate;}.cls-2{opacity:0.75;mix-blend-mode:multiply;}.cls-3{fill:#fff;}</style></defs><g class="cls-1"><g id="Layer_1" data-name="Layer 1"><g class="cls-2"><path d="M21.38,19.92h0Z"/><path d="M23.17,16l-1.6-4.4L18.52,3.25a1.16,1.16,0,0,0-1.08-.76H8.51A1.15,1.15,0,0,0,7.43,4l6.93,19.09a9.54,9.54,0,0,1,2.48-2L11.24,5.73a.17.17,0,0,1,.15-.23H16a.16.16,0,0,1,.16.11L20,16l1.41,3.88h.38a9.54,9.54,0,0,1,3,.59Z"/><path d="M24.61,3.25,22.2,9.89l.45,1.23,1.15,3.17L27,5.61a.17.17,0,0,1,.16-.11h4.63a.17.17,0,0,1,.16.23L26.28,21.18a9.47,9.47,0,0,1,2.47,2L35.71,4a1.16,1.16,0,0,0-1.09-1.55H25.7A1.17,1.17,0,0,0,24.61,3.25Z"/><path d="M21.52,40.64A11.12,11.12,0,1,1,32.64,29.52,11.13,11.13,0,0,1,21.52,40.64Zm0-19.22a8.11,8.11,0,1,0,8.11,8.1A8.11,8.11,0,0,0,21.52,21.42Z"/><path d="M22.12,25.72l.8,1.61a.53.53,0,0,0,.4.29l1.77.26a.53.53,0,0,1,.29.91L24.1,30a.56.56,0,0,0-.15.48l.3,1.76a.53.53,0,0,1-.78.56L21.89,32a.53.53,0,0,0-.49,0l-1.59.83a.53.53,0,0,1-.77-.56l.3-1.76a.56.56,0,0,0-.15-.48l-1.28-1.24a.53.53,0,0,1,.29-.91L20,27.62a.53.53,0,0,0,.4-.29l.8-1.61A.53.53,0,0,1,22.12,25.72Z"/></g><path class="cls-3" d="M20.81,19.35h0Z"/><path class="cls-3" d="M22.6,15.47,21,11.07,18,2.69a1.16,1.16,0,0,0-1.09-.76H7.94A1.15,1.15,0,0,0,6.86,3.48l6.93,19.09a9.74,9.74,0,0,1,2.48-2L10.67,5.16a.17.17,0,0,1,.16-.23h4.62a.17.17,0,0,1,.16.11L19.4,15.47l1.41,3.88h.38a9.53,9.53,0,0,1,3,.58Z"/><path class="cls-3" d="M24,2.69,21.63,9.32l.45,1.23,1.15,3.18L26.39,5a.16.16,0,0,1,.15-.11h4.63a.17.17,0,0,1,.16.23L25.72,20.61a9.8,9.8,0,0,1,2.46,2l7-19.15a1.15,1.15,0,0,0-1.08-1.55H25.13A1.16,1.16,0,0,0,24,2.69Z"/><path class="cls-3" d="M21,40.07A11.12,11.12,0,1,1,32.07,29,11.13,11.13,0,0,1,21,40.07Zm0-19.22A8.11,8.11,0,1,0,29.07,29,8.12,8.12,0,0,0,21,20.85Z"/><path class="cls-3" d="M21.56,25.16l.79,1.6a.52.52,0,0,0,.4.29l1.77.26a.54.54,0,0,1,.3.91l-1.28,1.25a.52.52,0,0,0-.16.47l.3,1.76a.53.53,0,0,1-.77.57l-1.58-.84a.55.55,0,0,0-.5,0l-1.58.84a.54.54,0,0,1-.78-.57l.3-1.76a.52.52,0,0,0-.15-.47l-1.28-1.25a.53.53,0,0,1,.3-.91l1.77-.26a.52.52,0,0,0,.4-.29l.79-1.6A.53.53,0,0,1,21.56,25.16Z"/></g></g></svg>