<svg id="Layer_1" data-name="Layer 1" xmlns="http://www.w3.org/2000/svg" xmlns:xlink="http://www.w3.org/1999/xlink" width="21.17mm" height="20.81mm" viewBox="0 0 60 59"><defs><style>.cls-1{fill:none;}.cls-2{clip-path:url(#clip-path);}.cls-3{clip-path:url(#clip-path-2);}.cls-4{fill:url(#linear-gradient);}.cls-5{fill:url(#linear-gradient-2);}.cls-6{clip-path:url(#clip-path-4);}.cls-7{fill:url(#linear-gradient-3);}</style><clipPath id="clip-path"><rect class="cls-1" x="3.93" y="0.28" width="52.14" height="58.44"/></clipPath><clipPath id="clip-path-2"><path class="cls-1" d="M27.7,1.78,7.14,13.65a4.6,4.6,0,0,0-2.3,4V41.37a4.6,4.6,0,0,0,2.3,4L27.7,57.22a4.56,4.56,0,0,0,4.6,0L52.86,45.35a4.6,4.6,0,0,0,2.3-4V17.63a4.6,4.6,0,0,0-2.3-4L32.3,1.78a4.58,4.58,0,0,0-4.6,0"/></clipPath><linearGradient id="linear-gradient" x1="0.61" y1="59.65" x2="0.65" y2="59.65" gradientTransform="matrix(0, -1342.19, -1342.19, 0, 80086.83, 878.04)" gradientUnits="userSpaceOnUse"><stop offset="0" stop-color="#1d345e"/><stop offset="0.45" stop-color="#1b273f"/><stop offset="1" stop-color="#181514"/></linearGradient><linearGradient id="linear-gradient-2" x1="-0.01" y1="59.43" x2="0.03" y2="59.43" gradientTransform="matrix(0, -1359.19, -1359.19, 0, 80809.47, 46.69)" gradientUnits="userSpaceOnUse"><stop offset="0" stop-color="#966427"/><stop offset="0.04" stop-color="#966427"/><stop offset="0.1" stop-color="#a57a34"/><stop offset="0.25" stop-color="#c6a750"/><stop offset="0.38" stop-color="#ddc863"/><stop offset="0.49" stop-color="#ecdc70"/><stop offset="0.56" stop-color="#f1e374"/><stop offset="0.65" stop-color="#eede70"/><stop offset="0.75" stop-color="#e6d166"/><stop offset="0.86" stop-color="#d7bb55"/><stop offset="0.97" stop-color="#c49c3d"/><stop offset="1" stop-color="#bd9235"/></linearGradient><clipPath id="clip-path-4"><path class="cls-1" d="M37.43,25.75l3.4,5H34.1ZM12.32,28.56A6.19,6.19,0,0,1,15,23.28a11.14,11.14,0,0,1,6.46-1.74c3.17,0,5.42.63,7.1,2l.31.26-.25.31L27.5,25.5l-.26.32-.32-.27c-1.1-.93-2.46-1.55-5.5-1.55-4,0-6.09,1.52-6.09,4.52s2,4.55,6.09,4.55a9.19,9.19,0,0,0,5-1.12V30H20.08V27.42h9.06v5.77l-.15.12c-1.71,1.47-4.24,2.22-7.53,2.22-5.72,0-9.14-2.61-9.14-7M9,19.08V38H29.23l2.15-3.2H43.64l2,3,.15.23H51l-.57-.83L38.05,19.08Z"/></clipPath><linearGradient id="linear-gradient-3" x1="-0.11" y1="58.31" x2="-0.07" y2="58.31" gradientTransform="matrix(994.98, 0, 0, -994.98, 119.78, 58047.8)" xlink:href="#linear-gradient-2"/></defs><g class="cls-2"><g class="cls-3"><rect class="cls-4" x="-7.21" y="-6.41" width="74.43" height="72.02" transform="translate(-10.64 40.78) rotate(-60)"/></g><g class="cls-2"><path class="cls-5" d="M55.16,41.37h-.34V17.63a4.26,4.26,0,0,0-2.13-3.69L32.13,2.07a4.26,4.26,0,0,0-4.26,0L7.31,13.94a4.26,4.26,0,0,0-2.13,3.69V41.37a4.26,4.26,0,0,0,2.13,3.69L27.87,56.93a4.26,4.26,0,0,0,4.26,0L52.69,45.06a4.26,4.26,0,0,0,2.13-3.69h.68A5,5,0,0,1,53,45.65L32.47,57.52a5,5,0,0,1-4.94,0L7,45.65A5,5,0,0,1,4.5,41.37V17.63A5,5,0,0,1,7,13.35L27.53,1.48a5,5,0,0,1,4.94,0L53,13.35a5,5,0,0,1,2.47,4.28V41.37Z"/></g><g class="cls-6"><rect class="cls-7" x="8.99" y="19.08" width="42.02" height="18.9"/></g></g></svg>