<svg xmlns="http://www.w3.org/2000/svg" xmlns:xlink="http://www.w3.org/1999/xlink" width="11.64mm" height="11.64mm" viewBox="0 0 33 33"><defs><style>.cls-1,.cls-5,.cls-7{fill:none;}.cls-2{isolation:isolate;}.cls-3{opacity:0.75;mix-blend-mode:multiply;}.cls-4{clip-path:url(#clip-path);}.cls-5{stroke:#000;}.cls-5,.cls-7{stroke-linecap:round;stroke-linejoin:round;stroke-width:2.88px;}.cls-6{clip-path:url(#clip-path-5);}.cls-7{stroke:#fff;}</style><clipPath id="clip-path"><rect class="cls-1" x="2.68" y="2.68" width="28.78" height="28.78"/></clipPath><clipPath id="clip-path-5"><rect class="cls-1" x="2.11" y="2.11" width="28.78" height="28.78"/></clipPath></defs><g class="cls-2"><g id="Layer_1" data-name="Layer 1"><g class="cls-3"><g class="cls-4"><g class="cls-4"><path class="cls-5" d="M29.4,12.69,17.07,4.12,4.73,12.69a1.45,1.45,0,0,0-.61,1.18V27.14A2.87,2.87,0,0,0,7,30H27.14a2.86,2.86,0,0,0,2-.79L22.77,24.9l6.34,4.33A2.84,2.84,0,0,0,30,27.14V13.87A1.43,1.43,0,0,0,29.4,12.69ZM5.06,29.24,11.23,25Zm12-7.12-12-8.23,12,8.23,12.05-8.23Z"/></g></g></g><g class="cls-6"><g class="cls-6"><path class="cls-7" d="M28.83,12.12,16.5,3.55,4.17,12.12a1.43,1.43,0,0,0-.62,1.18V26.57a2.88,2.88,0,0,0,2.88,2.88H26.57a2.82,2.82,0,0,0,2-.79L22.2,24.34l6.34,4.32a2.84,2.84,0,0,0,.91-2.09V13.3A1.43,1.43,0,0,0,28.83,12.12ZM4.49,28.67l6.17-4.22Zm12-7.12-12-8.22,12,8.22,12.06-8.22Z"/></g></g></g></g></svg>