<svg xmlns="http://www.w3.org/2000/svg" width="12.7mm" height="11.64mm" viewBox="0 0 36 33"><defs><style>.cls-1{isolation:isolate;}.cls-2{opacity:0.75;mix-blend-mode:multiply;}.cls-3{fill:#fff;}</style></defs><g class="cls-1"><g id="Layer_1" data-name="Layer 1"><g id="gift"><g class="cls-2"><path d="M5.26,15.51H16V31.88H5.26Zm15.92,0V31.88h10.7V15.51ZM19.06,8.33H17.39m11.76,0c.09-.26.17-.51.23-.76a4.52,4.52,0,0,0-.87-4.44c-.72-.71-2.09-1.36-4.54-.36A15.68,15.68,0,0,0,19.12,6.2l-.9.91-.89-.92a15.69,15.69,0,0,0-4.85-3.42C10,1.77,8.67,2.42,8,3.13a4.5,4.5,0,0,0-.88,4.44c.07.25.14.5.24.76H3.83v6.06H16V8.33H8.86C8.12,6.63,8.1,5,9,4.16s2-.43,3,0a14.33,14.33,0,0,1,4.37,3.1l1.09,1.12h1.67l1.09-1.12a14.33,14.33,0,0,1,4.37-3.1c.94-.38,2.22-.69,3,0A3.12,3.12,0,0,1,28,7.22a6.88,6.88,0,0,1-.37,1.11H21.18v6.06H33.3V8.33Z"/></g><path class="cls-3" d="M4.69,14.94h10.7V31.31H4.69Zm15.92,0V31.31h10.7V14.94ZM18.5,7.76H16.82m11.76,0A7.32,7.32,0,0,0,28.81,7a4.49,4.49,0,0,0-.87-4.43c-.72-.72-2.09-1.36-4.53-.36a15.55,15.55,0,0,0-4.86,3.42l-.89.92-.9-.93a15.53,15.53,0,0,0-4.85-3.41c-2.44-1-3.81-.36-4.53.36A4.49,4.49,0,0,0,6.51,7a7.32,7.32,0,0,0,.23.76H3.26v6.06H15.39V7.76H8.3c-.75-1.69-.77-3.3.1-4.17s2-.43,3,0a14.34,14.34,0,0,1,4.37,3.09l1.09,1.12H18.5l1.08-1.11A14.36,14.36,0,0,1,24,3.55c.94-.39,2.22-.69,2.95,0a3.14,3.14,0,0,1,.5,3.06A6.94,6.94,0,0,1,27,7.76H20.61v6.06H32.74V7.76Z"/></g></g></g></svg>