<svg xmlns="http://www.w3.org/2000/svg" width="12.7mm" height="12.7mm" viewBox="0 0 36 36"><defs><style>.cls-1{isolation:isolate;}.cls-2{opacity:0.75;mix-blend-mode:multiply;}.cls-3{fill:#fff;}</style></defs><g class="cls-1"><g id="Layer_1" data-name="Layer 1"><g id="icon"><g class="cls-2"><path d="M9.36,34.37H27.12V31.74H9.36ZM31.42,2.9a2.35,2.35,0,0,0-2.8,1,4.44,4.44,0,0,0-.25.83H8.7a4.17,4.17,0,0,0-.26-.87,2.3,2.3,0,0,0-2.78-1c-.47.16-1.95.88-1.48,3.5a13.33,13.33,0,0,0,3.65,6.25c.61.58,2.44,2.3,2.58,2.93l-.05,0a.56.56,0,0,1-.43-.11A1.94,1.94,0,0,1,9.69,15L8.45,14a2.33,2.33,0,0,0,.39,2.67,2.09,2.09,0,0,0,1.52.59,1.64,1.64,0,0,0,.69-.18A1.62,1.62,0,0,0,12,15.84a2,2,0,0,0,0-.35c1.24.51,3.83,2.21,3.83,7.47,0,5.57-5.67,6.43-5.67,6.43v1.68H26.28V29.39s-5.43-.86-5.43-6.43,3.11-7.11,4.33-7.53a1.56,1.56,0,0,0,0,.43,1.61,1.61,0,0,0,.95,1.22,1.56,1.56,0,0,0,.7.16,2.14,2.14,0,0,0,1.54-.6A2.26,2.26,0,0,0,28.73,14l-1.24,1a.7.7,0,0,1-.24.47.62.62,0,0,1-.43.12l-.05,0c.14-.63,2-2.37,2.58-3A13.2,13.2,0,0,0,33,6.36C33.41,3.75,31.9,3.05,31.42,2.9ZM8.88,11.41A11.84,11.84,0,0,1,5.72,6.08c-.09-.49-.16-1.34.34-1.59a1,1,0,0,1,1,.09,5.7,5.7,0,0,1,.2,2.52h0L8,7.22l.79.11a6.82,6.82,0,0,0,.07-.82l1.94,6.8C10.29,12.77,9.67,12.15,8.88,11.41ZM31.4,6.08a11.62,11.62,0,0,1-3.14,5.33,27.41,27.41,0,0,0-2.07,2.14l2.08-6.88c0,.36.05.61.06.68l1.05-.16.53-.08h0a5.57,5.57,0,0,1,.16-2.51,1.08,1.08,0,0,1,1-.1C31.55,4.73,31.48,5.59,31.4,6.08Z"/></g><path class="cls-3" d="M8.8,33.8H26.56V31.18H8.8ZM30.86,2.33a2.38,2.38,0,0,0-2.81,1,4.44,4.44,0,0,0-.25.83H8.14a4.19,4.19,0,0,0-.27-.87,2.31,2.31,0,0,0-2.78-1c-.46.16-1.95.88-1.48,3.51a13.3,13.3,0,0,0,3.65,6.24c.62.58,2.44,2.3,2.58,2.93l-.05,0a.55.55,0,0,1-.42-.11c-.16-.16-.18-.37-.25-.47l-1.24-1a2.34,2.34,0,0,0,.39,2.67,2.12,2.12,0,0,0,1.52.58,1.58,1.58,0,0,0,.7-.18,1.61,1.61,0,0,0,.92-1.24,1.37,1.37,0,0,0,0-.35c1.24.51,3.83,2.21,3.83,7.47,0,5.57-5.66,6.43-5.66,6.43V30.5H25.71V28.82s-5.43-.86-5.43-6.43,3.11-7.11,4.33-7.53a2,2,0,0,0,0,.43,1.58,1.58,0,0,0,.95,1.22,1.72,1.72,0,0,0,.7.17,2.19,2.19,0,0,0,1.54-.6,2.3,2.3,0,0,0,.36-2.66l-1.25,1a.7.7,0,0,1-.23.47.54.54,0,0,1-.43.12l-.06,0c.14-.63,2-2.36,2.58-2.95A13.21,13.21,0,0,0,32.4,5.8C32.84,3.18,31.33,2.48,30.86,2.33ZM8.32,10.84A11.75,11.75,0,0,1,5.15,5.52C5.07,5,5,4.17,5.49,3.93a1,1,0,0,1,1,.09,5.82,5.82,0,0,1,.19,2.52h0l.77.11.79.11a7.93,7.93,0,0,0,.06-.82l2,6.81C9.72,12.2,9.1,11.58,8.32,10.84ZM30.83,5.51a11.64,11.64,0,0,1-3.13,5.33A27.82,27.82,0,0,0,25.62,13L27.7,6.1c0,.36.06.62.07.69l1-.17.53-.08h0A5.72,5.72,0,0,1,29.5,4a1.08,1.08,0,0,1,1-.1C31,4.17,30.92,5,30.83,5.51Z"/></g></g></g></svg>