<svg id="Layer_1" data-name="Layer 1" xmlns="http://www.w3.org/2000/svg" width="8.47mm" height="8.47mm" viewBox="0 0 24 24"><defs><style>.cls-1,.cls-2{fill:#f7f7f7;}.cls-1{fill-rule:evenodd;}</style></defs><path class="cls-1" d="M14.78,16.85c-.48,1.85-5.33,2-5-.48.21-1.64.55-3.21.82-4.85.14-1-.55-.69-1.09-.89s-.41-.69.07-.75a28.28,28.28,0,0,1,3.48-.07c.41,0,.62.2.62.54a2.14,2.14,0,0,1-.07,1c-.27,1.58-.68,3.22-.82,4.72-.07.34,0,1,.48,1a5,5,0,0,0,1.09-.41c.27-.14.41.07.41.27Z"/><path class="cls-1" d="M12.39,5.77A1.62,1.62,0,0,1,14,7.41a1.57,1.57,0,0,1-1.64,1.64,1.64,1.64,0,0,1,0-3.28Z"/><path class="cls-2" d="M12,.23A11.77,11.77,0,1,1,.23,12,11.76,11.76,0,0,1,12,.23ZM12,2a10,10,0,1,0,10,10A10,10,0,0,0,12,2Z"/></svg>