<svg id="Layer_1" data-name="Layer 1" xmlns="http://www.w3.org/2000/svg" width="9.17mm" height="7.06mm" viewBox="0 0 26 20"><defs><style>.cls-1{fill:#f7f7f7;fill-rule:evenodd;}</style></defs><path class="cls-1" d="M3,.5A2.47,2.47,0,1,1,.5,3,2.47,2.47,0,0,1,3,.5Z"/><path class="cls-1" d="M9.15,1.43H24a1.54,1.54,0,0,1,0,3.08H9.15A1.54,1.54,0,0,1,9.15,1.43Z"/><path class="cls-1" d="M3,7.53A2.47,2.47,0,1,1,.5,10,2.47,2.47,0,0,1,3,7.53Z"/><path class="cls-1" d="M9.15,8.46H24a1.55,1.55,0,0,1,0,3.09H9.15A1.55,1.55,0,0,1,9.15,8.46Z"/><path class="cls-1" d="M3,14.57A2.47,2.47,0,1,1,.5,17,2.47,2.47,0,0,1,3,14.57Z"/><path class="cls-1" d="M9.15,15.49H24a1.55,1.55,0,0,1,0,3.09H9.15A1.55,1.55,0,0,1,9.15,15.49Z"/></svg>