<?xml version="1.0" encoding="utf-8"?>
<!-- Generator: Adobe Illustrator 25.0.0, SVG Export Plug-In . SVG Version: 6.00 Build 0)  -->
<svg version="1.1" id="Layer_1" xmlns="http://www.w3.org/2000/svg" xmlns:xlink="http://www.w3.org/1999/xlink" x="0px" y="0px"
	 viewBox="0 0 180 178" style="enable-background:new 0 0 180 178;" xml:space="preserve">
<style type="text/css">
	.st0{fill:#FD5827;}
	.st1{clip-path:url(#SVGID_2_);fill:#FD5827;}
	.st2{fill:#299E98;}
	.st3{fill:#0D3B55;}
	.st4{fill:#F1D75E;}
	.st5{clip-path:url(#SVGID_4_);fill:#FD5827;}
	.st6{fill:#5D778B;}
	.st7{fill:#1A384F;}
	.st8{fill:#A3A090;}
	.st9{fill:#13557C;}
</style>
<path class="st0" d="M154.9,44.1L96.4,10.3c-1-0.6-2-1-3.1-1.3c-1.1-0.3-2.2-0.4-3.3-0.4S87.8,8.7,86.7,9c-1.1,0.3-2.1,0.7-3.1,1.3
	L25.1,44.1c-1,0.6-1.9,1.2-2.7,2c-0.8,0.8-1.5,1.7-2,2.7c-0.6,1-1,2-1.3,3.1c-0.3,1.1-0.4,2.2-0.4,3.3v67.6c0,1.1,0.1,2.3,0.4,3.4
	c0.3,1.1,0.7,2.1,1.3,3.1c0.6,1,1.2,1.9,2,2.7c0.8,0.8,1.7,1.5,2.7,2.1l58.5,33.7c1,0.6,2,1,3.1,1.3c1.1,0.3,2.2,0.4,3.3,0.4
	c1.1,0,2.2-0.1,3.3-0.4s2.1-0.7,3.1-1.3l58.5-33.7c1-0.6,1.9-1.2,2.7-2c0.8-0.8,1.5-1.7,2-2.7s1-2,1.3-3.1c0.3-1.1,0.4-2.2,0.4-3.3
	V55.2c0-1.1-0.1-2.2-0.4-3.3c-0.3-1.1-0.7-2.1-1.3-3.1c-0.6-1-1.2-1.9-2-2.7C156.8,45.3,155.9,44.7,154.9,44.1z"/>
<g>
	<defs>
		<rect id="SVGID_1_" x="265.9" y="450.9" width="128.8" height="127.4"/>
	</defs>
	<clipPath id="SVGID_2_">
		<use xlink:href="#SVGID_1_"  style="overflow:visible;"/>
	</clipPath>
	<path class="st1" d="M376.8,482.5l-41.9-24.2c-0.7-0.4-1.4-0.7-2.2-0.9s-1.6-0.3-2.4-0.3s-1.6,0.1-2.4,0.3s-1.5,0.5-2.2,0.9
		l-41.9,24.2c-0.7,0.4-1.3,0.9-1.9,1.5c-0.6,0.6-1.1,1.2-1.5,1.9c-0.4,0.7-0.7,1.4-0.9,2.2c-0.2,0.8-0.3,1.6-0.3,2.4v48.4
		c0,0.8,0.1,1.6,0.3,2.4c0.2,0.8,0.5,1.5,0.9,2.2c0.4,0.7,0.9,1.3,1.5,1.9c0.6,0.6,1.2,1.1,1.9,1.5l41.9,24.1
		c0.7,0.4,1.4,0.7,2.2,0.9c0.8,0.2,1.6,0.3,2.4,0.3c0.8,0,1.6-0.1,2.4-0.3s1.5-0.5,2.2-0.9l41.9-24.1c0.7-0.4,1.3-0.9,1.9-1.5
		s1.1-1.2,1.5-1.9s0.7-1.4,0.9-2.2s0.3-1.6,0.3-2.4v-48.4c0-0.8-0.1-1.6-0.3-2.4c-0.2-0.8-0.5-1.5-0.9-2.2c-0.4-0.7-0.9-1.3-1.5-1.9
		S377.4,482.9,376.8,482.5z"/>
</g>
<path class="st2" d="M378.3,260.5c0,7.4-0.1,14.8,0,22.3c0.1,3.7-1.5,6.4-4.6,8.2c-13,7.5-25.9,15.1-38.9,22.6
	c-3.1,1.8-6.3,1.6-9.4-0.2c-12.8-7.4-25.7-14.9-38.5-22.3c-3.3-1.9-4.7-4.7-4.7-8.6c0.1-14.7,0.1-29.4,0-44c0-4.3,1.5-7.2,5.2-9.3
	c12.6-7.2,25.1-14.5,37.7-21.8c3.5-2,6.8-2.1,10.3-0.1c12.7,7.4,25.4,14.7,38.1,22.1c3.5,2,5,4.9,4.9,9
	C378.2,245.7,378.3,253.1,378.3,260.5z"/>
<path class="st3" d="M378.3,134.6c0,7.4-0.1,14.9,0,22.3c0.1,3.7-1.5,6.3-4.6,8.2c-12.8,7.4-25.7,14.9-38.5,22.3
	c-3.5,2-6.8,1.8-10.3-0.2c-12.5-7.3-25.1-14.6-37.7-21.8c-3.5-2-5.1-4.8-5.1-8.9c0.1-14.8,0.1-29.7,0-44.5c0-3.9,1.5-6.6,4.8-8.5
	c12.7-7.3,25.4-14.7,38.1-22.1c3.7-2.1,7.1-1.9,10.7,0.2c12.4,7.2,24.8,14.4,37.2,21.5c3.6,2.1,5.4,4.9,5.3,9.2
	C378.2,119.7,378.3,127.1,378.3,134.6z"/>
<path class="st4" d="M378.3,387.7c0,7.3-0.1,14.5,0,21.8c0.1,3.9-1.3,6.7-4.6,8.7c-13,7.5-25.9,15.1-38.9,22.6
	c-3.1,1.8-6.3,1.6-9.4-0.2c-12.7-7.3-25.4-14.7-38.1-22c-3.4-2-5.1-4.8-5.1-8.9c0.1-14.8,0.1-29.7,0-44.5c0-3.9,1.5-6.6,4.8-8.5
	c12.8-7.4,25.7-14.9,38.5-22.3c3.3-1.9,6.6-1.7,9.9,0.2c12.5,7.3,25.1,14.6,37.7,21.8c3.6,2.1,5.4,4.9,5.3,9.3
	C378.1,372.9,378.3,380.3,378.3,387.7z"/>
<g>
	<defs>
		<rect id="SVGID_3_" x="447.7" y="446.5" width="128.8" height="127.4"/>
	</defs>
	<clipPath id="SVGID_4_">
		<use xlink:href="#SVGID_3_"  style="overflow:visible;"/>
	</clipPath>
	<path class="st5" d="M558.6,478l-41.9-24.2c-0.7-0.4-1.4-0.7-2.2-0.9c-0.8-0.2-1.6-0.3-2.4-0.3c-0.8,0-1.6,0.1-2.4,0.3
		s-1.5,0.5-2.2,0.9L465.6,478c-0.7,0.4-1.3,0.9-1.9,1.5c-0.6,0.6-1.1,1.2-1.5,1.9c-0.4,0.7-0.7,1.4-0.9,2.2
		c-0.2,0.8-0.3,1.6-0.3,2.4v48.4c0,0.8,0.1,1.6,0.3,2.4s0.5,1.5,0.9,2.2c0.4,0.7,0.9,1.3,1.5,1.9c0.6,0.6,1.2,1.1,1.9,1.5l41.9,24.1
		c0.7,0.4,1.4,0.7,2.2,0.9s1.6,0.3,2.4,0.3c0.8,0,1.6-0.1,2.4-0.3c0.8-0.2,1.5-0.5,2.2-0.9l41.9-24.1c0.7-0.4,1.3-0.9,1.9-1.5
		s1.1-1.2,1.5-1.9c0.4-0.7,0.7-1.4,0.9-2.2s0.3-1.6,0.3-2.4V486c0-0.8-0.1-1.6-0.3-2.4c-0.2-0.8-0.5-1.5-0.9-2.2
		c-0.4-0.7-0.9-1.3-1.5-1.9C559.9,478.9,559.3,478.4,558.6,478z"/>
</g>
<path class="st6" d="M560.1,256.1c0,7.4-0.1,14.8,0,22.3c0.1,3.7-1.5,6.4-4.6,8.2c-13,7.5-25.9,15.1-38.9,22.6
	c-3.1,1.8-6.3,1.6-9.4-0.2c-12.8-7.4-25.7-14.9-38.5-22.3c-3.3-1.9-4.7-4.7-4.7-8.6c0.1-14.7,0.1-29.4,0-44c0-4.3,1.5-7.2,5.2-9.3
	c12.6-7.2,25.1-14.5,37.7-21.8c3.5-2,6.8-2.1,10.3-0.1c12.7,7.4,25.4,14.7,38.1,22.1c3.5,2,5,4.9,4.9,9
	C560,241.2,560.1,248.7,560.1,256.1z"/>
<path class="st7" d="M560.1,128.9c0,7.4-0.1,14.9,0,22.3c0.1,3.7-1.5,6.3-4.6,8.2c-12.8,7.4-25.7,14.9-38.5,22.3
	c-3.5,2-6.8,1.8-10.3-0.2c-12.5-7.3-25.1-14.6-37.7-21.8c-3.5-2-5.1-4.8-5.1-8.9c0.1-14.8,0.1-29.7,0-44.5c0-3.9,1.5-6.6,4.8-8.5
	c12.7-7.3,25.4-14.7,38.1-22.1c3.7-2.1,7.1-1.9,10.7,0.2c12.4,7.2,24.8,14.4,37.2,21.5c3.6,2.1,5.4,4.9,5.3,9.2
	C560,114.1,560.1,121.5,560.1,128.9z"/>
<path class="st8" d="M560.1,383.3c0,7.3-0.1,14.5,0,21.8c0.1,3.9-1.3,6.7-4.6,8.7c-13,7.5-25.9,15.1-38.9,22.6
	c-3.1,1.8-6.3,1.6-9.4-0.2c-12.7-7.3-25.4-14.7-38.1-22c-3.4-2-5.1-4.8-5.1-8.9c0.1-14.8,0.1-29.7,0-44.5c0-3.9,1.5-6.6,4.8-8.5
	c12.8-7.4,25.7-14.9,38.5-22.3c3.3-1.9,6.6-1.7,9.9,0.2c12.5,7.3,25.1,14.6,37.7,21.8c3.6,2.1,5.4,4.9,5.3,9.3
	C560,368.4,560.1,375.9,560.1,383.3z"/>
<rect x="-314" y="-402.4" class="st3" width="407.9" height="220"/>
<rect x="-721.9" y="-402.4" class="st0" width="407.9" height="220"/>
<rect x="93.8" y="-402.4" class="st9" width="414.3" height="220"/>
</svg>
